<?xml version="1.0" encoding="UTF-8"?>
<svg width="39px" height="48px" viewBox="0 0 39 48" version="1.1" xmlns="http://www.w3.org/2000/svg" xmlns:xlink="http://www.w3.org/1999/xlink">
    <!-- Generator: sketchtool 63.1 (101010) - https://sketch.com -->
    <title>2FBA8453-7327-43B5-83DE-885A0D33930D</title>
    <desc>Created with sketchtool.</desc>
    <g id="Product-Page" stroke="none" stroke-width="1" fill="none" fill-rule="evenodd">
        <g id="KO-Product-Desktop" transform="translate(-135.000000, -48.000000)" fill="#191D33" fill-rule="nonzero">
            <g id="C-2" transform="translate(135.000000, 48.000000)">
                <g id="C">
                    <path d="M34.1214053,41.69296 C37.3683821,38.8099411 39.2246612,34.6710732 38.8014053,30.2937147 C38.40186,26.4801595 36.3772272,23.0230402 33.2446612,20.8054128 C36.2256216,18.0522053 37.7190949,14.5171109 36.9088805,11.1510732 C36.0019037,7.35635623 36.540016,4.29825811 36.0019037,1.31862038 C35.8962635,0.491675748 35.1392833,-0.09318382 34.3111358,0.0122958491 C33.9511762,0.0863182353 33.6205486,0.263287045 33.3595388,0.521639245 C28.7785626,4.36774642 25.3170949,3.22481811 20.1098391,4.03370868 C18.4775652,4.3437476 16.9058509,4.91390811 15.4549049,5.72234868 C13.4066037,6.9339683 9.30535465,7.98263245 5.93559744,7.0091834 C5.51010465,6.89923486 5.06002898,6.93429618 4.65676023,7.10880604 C3.99500595,7.46457317 3.69004358,8.24762397 3.93722535,8.95635321 C4.80187651,11.863523 6.65815558,14.3631457 7.58931837,18.1608815 C8.08226059,20.0816452 9.22647186,21.7725205 10.8272526,22.9457872 C10.6488533,23.1299381 10.4735316,23.3261645 10.301206,23.5223909 C5.34004326,28.5789947 1.82097349,36.8748438 0.490719767,42.2091834 C0.428978837,42.4719547 0.361626744,42.8934974 0.335239767,43.1239668 C0.224604783,43.9505644 0.359621558,44.7914041 0.723516512,45.5420257 C1.32816767,46.7495728 2.46491186,47.4741011 3.81933047,47.7397615 C4.83281674,47.8673253 5.86173106,47.7861591 6.84258628,47.5012709 C10.0457911,46.6521603 13.1863787,45.5829448 16.2418886,44.3012709 C18.9213895,45.5130518 21.8661934,46.0221886 24.7977177,45.7805162 L36.8030665,44.5729691 C36.6881465,43.3654068 35.6360595,42.2574883 34.1214053,41.69296 Z M11.1434519,21.1892015 C8.1231693,18.4230061 7.91715277,13.7368668 10.6830643,10.7170311 C13.4489758,7.69719536 18.1416282,7.48480371 21.1697895,10.242397 L21.1697895,10.2212649 C22.3010201,7.15004239 25.3105994,5.17879321 28.5823488,5.36610091 C31.8540981,5.55340862 34.6183337,7.85520881 35.390629,11.0354082 C36.1629244,14.2156076 34.761596,17.5260597 31.9391733,19.1890136 C29.1167507,20.8519674 25.5372128,20.4762107 23.1228128,18.2635291 L23.1228128,18.2906989 C22.2645163,20.6060081 20.3088149,22.3431341 17.9059183,22.9245367 C15.5030217,23.5059392 12.9679232,22.8554028 11.143464,21.1892106 L11.1434519,21.1892015 Z M25.3116379,21.9978687 L25.0093123,23.1178687 C24.9341782,23.3987456 24.7149061,23.6183963 24.433861,23.6943133 C24.1528159,23.7702303 23.8525519,23.6909188 23.6458572,23.4861706 L22.8235044,22.6650385 C22.6168437,22.4591704 22.5360081,22.1587742 22.6114998,21.8772001 C22.6869915,21.5956259 22.9073181,21.3757389 23.1893426,21.3005102 L24.3109705,20.9986234 C24.5930037,20.9226649 24.8941874,21.0029856 25.1007397,21.2092419 C25.307292,21.4154981 25.387724,21.7162461 25.31165,21.9978687 L25.3116379,21.9978687 Z M24.6646914,44.3435291 C22.3722017,44.5580321 20.0606676,44.2589383 17.8986449,43.4680574 C27.3583881,38.9880574 36.1802728,31.72768 31.8932719,22.972963 C31.7666565,22.7127861 31.6258871,22.459718 31.4715942,22.2148921 L31.467017,22.218246 L31.470007,22.2122083 L31.4715942,22.2148981 C31.6996686,22.0549645 31.9218618,21.8920574 32.1381737,21.7261766 C35.0283851,23.6673087 37.1204993,26.6590068 37.4862951,30.4567426 C38.2088533,37.9646491 31.705827,43.6672936 24.6646884,44.343517 L24.6646914,44.3435291 Z" id="Shape"></path>
                    <path d="M20.0783972,15.0574762 L20.0783247,15.0571743 C19.5805715,12.9865802 17.4960942,11.7109381 15.4224805,12.2079272 C13.3488668,12.7049162 12.0713285,14.7863425 12.5689982,16.8569566 C13.0666679,18.9275707 15.1510938,20.2032966 17.2247275,19.7063909 C19.2983613,19.2094852 20.5759834,17.1281104 20.0783972,15.0574762 Z M17.3262791,15.5082989 C16.6550604,15.5082989 16.1109302,14.9649584 16.1109302,14.294714 C16.1109302,13.6244695 16.6550604,13.0811291 17.3262791,13.0811291 C17.9974977,13.0811291 18.5416279,13.6244695 18.5416279,14.294714 C18.5416279,14.9649584 17.9974977,15.5082989 17.3262791,15.5082989 L17.3262791,15.5082989 Z" id="Shape"></path>
                    <path d="M32.0535105,12.1593721 L32.0529058,12.1569026 C31.6854499,10.6339112 30.4354137,9.48191268 28.8856883,9.2380833 C27.3359629,8.99425393 25.7917409,9.7066118 24.9730919,11.0429849 C24.154443,12.379358 24.2225863,14.07657 25.1457469,15.343212 C26.0689074,16.6098539 27.6652839,17.1964819 29.1904872,16.8295517 L29.1935105,16.8295698 C31.2739466,16.3273925 32.5538392,14.2374094 32.0535105,12.1593721 L32.0535105,12.1593721 Z M29.3490751,12.6298717 C28.6778565,12.6298717 28.1337263,12.0865312 28.1337263,11.4162868 C28.1337263,10.7460424 28.6778565,10.2027019 29.3490751,10.2027019 C30.0202937,10.2027019 30.564424,10.7460424 30.564424,11.4162868 C30.564424,12.0865312 30.0202937,12.6298717 29.3490751,12.6298717 Z" id="Shape"></path>
                </g>
            </g>
        </g>
    </g>
</svg>
